0
SECTION
2
HEADER
9
$INSUNITS
70
4
9
$ACADVER
1
AC1014
9
$HANDSEED
5
FFFF
0
ENDSEC
0
SECTION
2
TABLES
0
TABLE
2
VPORT
5
8
100
AcDbSymbolTable
0
ENDTAB
0
TABLE
2
LTYPE
5
5
100
AcDbSymbolTable
0
LTYPE
5
14
100
AcDbSymbolTableRecord
100
AcDbLinetypeTableRecord
2
BYBLOCK
70
0
0
LTYPE
5
15
100
AcDbSymbolTableRecord
100
AcDbLinetypeTableRecord
2
BYLAYER
70
0
0
LTYPE
5
16
100
AcDbSymbolTableRecord
100
AcDbLinetypeTableRecord
2
DASHED
70
0
3
Dashed __ __ __ __ __ __ __ __ __ __ __ __ __ _
72
65
73
2
40
0.75
49
0.5
74
0
49
-0.25
74
0
0
ENDTAB
0
TABLE
2
LAYER
5
2
100
AcDbSymbolTable
70
2
0
LAYER
5
50
100
AcDbSymbolTableRecord
100
AcDbLayerTableRecord
2
0
70
0
62
7
6
CONTINUOUS
0
ENDTAB
0
TABLE
2
STYLE
5
3
100
AcDbSymbolTable
70
1
0
STYLE
5
11
100
AcDbSymbolTableRecord
100
AcDbTextStyleTableRecord
2
STANDARD
70
0
0
ENDTAB
0
TABLE
2
VIEW
5
6
100
AcDbSymbolTable
70
0
0
ENDTAB
0
TABLE
2
UCS
5
7
100
AcDbSymbolTable
70
0
0
ENDTAB
0
TABLE
2
APPID
5
9
100
AcDbSymbolTable
70
2
0
APPID
5
12
100
AcDbSymbolTableRecord
100
AcDbRegAppTableRecord
2
ACAD
70
0
0
ENDTAB
0
TABLE
2
DIMSTYLE
5
A
100
AcDbSymbolTable
70
1
0
ENDTAB
0
TABLE
2
BLOCK_RECORD
5
1
100
AcDbSymbolTable
70
1
0
BLOCK_RECORD
5
1F
100
AcDbSymbolTableRecord
100
AcDbBlockTableRecord
2
*MODEL_SPACE
0
BLOCK_RECORD
5
1B
100
AcDbSymbolTableRecord
100
AcDbBlockTableRecord
2
*PAPER_SPACE
0
ENDTAB
0
ENDSEC
0
SECTION
2
BLOCKS
0
BLOCK
5
20
100
AcDbEntity
100
AcDbBlockBegin
2
*MODEL_SPACE
0
ENDBLK
5
21
100
AcDbEntity
100
AcDbBlockEnd
0
BLOCK
5
1C
100
AcDbEntity
100
AcDbBlockBegin
2
*PAPER_SPACE
0
ENDBLK
5
1D
100
AcDbEntity
100
AcDbBlockEnd
0
ENDSEC
0
SECTION
2
ENTITIES
0
LINE
5
100
100
AcDbEntity
8
0
100
AcDbLine
10
0
20
-50.299998875707388
30
0
11
0
21
-59.299998674541712
31
0
6
DASHED
0
LINE
5
101
100
AcDbEntity
8
0
100
AcDbLine
10
0
20
-54.79999877512455
30
0
11
-2.4999999441206455
21
-54.79999877512455
31
0
6
DASHED
0
LINE
5
102
100
AcDbEntity
8
0
100
AcDbLine
10
0
20
-54.79999877512455
30
0
11
2.4999999441206455
21
-54.79999877512455
31
0
6
DASHED
0
LINE
5
103
100
AcDbEntity
8
0
100
AcDbLine
10
-2.4999999441206455
20
-54.79999877512455
30
0
11
-2.4999999441206455
21
-52.500000782310963
31
0
0
SPLINE
5
104
100
AcDbEntity
8
0
100
AcDbSpline
70
4
71
5
72
26
73
20
74
0
42
0.000000001
43
0.0000000001
44
0.0000000001
40
0
40
0
40
0
40
0
40
0
40
0
40
0.066666666666666666
40
0.13333333333333333
40
0.20000000000000001
40
0.26666666666666666
40
0.33333333333333331
40
0.39999999999999997
40
0.46666666666666662
40
0.53333333333333333
40
0.59999999999999998
40
0.66666666666666663
40
0.73333333333333328
40
0.79999999999999993
40
0.86666666666666659
40
0.93333333333333324
40
1
40
1
40
1
40
1
40
1
40
1
41
1
41
1
41
1
41
1
41
1
41
1
41
1
41
1
41
1
41
1
41
1
41
1
41
1
41
1
41
1
41
1
41
1
41
1
41
1
41
1
10
-2.4999999441206455
20
-52.500000782310963
30
0
10
-2.4999999441206455
20
-52.453551803749491
30
0
10
-2.4969620087241733
20
-52.361401837163015
30
0
10
-2.4832915129141546
20
-52.225420809805641
30
0
10
-2.4473786334427485
20
-52.048546429024995
30
0
10
-2.375988743111948
20
-51.834680212620476
30
0
10
-2.2816984622566485
20
-51.628082728440603
30
0
10
-2.1678468882494344
20
-51.429206371354368
30
0
10
-2.0365907523346469
20
-51.239138480413466
30
0
10
-1.8882697343492039
20
-51.059741015784311
30
0
10
-1.7220939341351236
20
-50.893393945279271
30
0
10
-1.5367026623287039
20
-50.742764653432914
30
0
10
-1.3307662090774848
20
-50.610553290438098
30
0
10
-1.1037396312279402
20
-50.499156229496208
30
0
10
-0.85629662962918918
20
-50.410431576824777
30
0
10
-0.58966140085694052
20
-50.345867082593152
30
0
10
-0.36210361078443531
20
-50.314453985188294
30
0
10
-0.18391850800395004
20
-50.302627096487988
30
0
10
-0.061852217277411872
20
-50.299998875707388
30
0
10
0
20
-50.299998875707388
30
0
0
SPLINE
5
105
100
AcDbEntity
8
0
100
AcDbSpline
70
4
71
5
72
26
73
20
74
0
42
0.000000001
43
0.0000000001
44
0.0000000001
40
0
40
0
40
0
40
0
40
0
40
0
40
0.066666666666666666
40
0.13333333333333333
40
0.20000000000000001
40
0.26666666666666666
40
0.33333333333333331
40
0.39999999999999997
40
0.46666666666666662
40
0.53333333333333333
40
0.59999999999999998
40
0.66666666666666663
40
0.73333333333333328
40
0.79999999999999993
40
0.86666666666666659
40
0.93333333333333324
40
1
40
1
40
1
40
1
40
1
40
1
41
1
41
1
41
1
41
1
41
1
41
1
41
1
41
1
41
1
41
1
41
1
41
1
41
1
41
1
41
1
41
1
41
1
41
1
41
1
41
1
10
2.4999999441206455
20
-52.500000782310963
30
0
10
2.4999999441206455
20
-52.453551803749491
30
0
10
2.4969620087241733
20
-52.361401837163015
30
0
10
2.4832915129141546
20
-52.225420809805641
30
0
10
2.4473786334427485
20
-52.048546429024995
30
0
10
2.375988743111948
20
-51.834680212620476
30
0
10
2.2816984622566485
20
-51.628082728440603
30
0
10
2.1678468882494344
20
-51.429206371354368
30
0
10
2.0365907523346469
20
-51.239138480413466
30
0
10
1.8882697343492039
20
-51.059741015784311
30
0
10
1.7220939341351236
20
-50.893393945279271
30
0
10
1.5367026623287039
20
-50.742764653432914
30
0
10
1.3307662090774848
20
-50.610553290438098
30
0
10
1.1037396312279402
20
-50.499156229496208
30
0
10
0.85629662962918918
20
-50.410431576824777
30
0
10
0.58966140085694052
20
-50.345867082593152
30
0
10
0.36210361078443531
20
-50.314453985188294
30
0
10
0.18391850800395004
20
-50.302627096487988
30
0
10
0.061852217277411872
20
-50.299998875707388
30
0
10
0
20
-50.299998875707388
30
0
0
LINE
5
106
100
AcDbEntity
8
0
100
AcDbLine
10
2.4999999441206455
20
-54.79999877512455
30
0
11
2.4999999441206455
21
-52.500000782310963
31
0
0
LINE
5
107
100
AcDbEntity
8
0
100
AcDbLine
10
-2.4999999441206455
20
-54.79999877512455
30
0
11
-2.4999999441206455
21
-57.099996767938137
31
0
0
SPLINE
5
108
100
AcDbEntity
8
0
100
AcDbSpline
70
4
71
5
72
26
73
20
74
0
42
0.000000001
43
0.0000000001
44
0.0000000001
40
0
40
0
40
0
40
0
40
0
40
0
40
0.066666666666666666
40
0.13333333333333333
40
0.20000000000000001
40
0.26666666666666666
40
0.33333333333333331
40
0.39999999999999997
40
0.46666666666666662
40
0.53333333333333333
40
0.59999999999999998
40
0.66666666666666663
40
0.73333333333333328
40
0.79999999999999993
40
0.86666666666666659
40
0.93333333333333324
40
1
40
1
40
1
40
1
40
1
40
1
41
1
41
1
41
1
41
1
41
1
41
1
41
1
41
1
41
1
41
1
41
1
41
1
41
1
41
1
41
1
41
1
41
1
41
1
41
1
41
1
10
-2.4999999441206455
20
-57.099996767938137
30
0
10
-2.4999999441206455
20
-57.146445746499609
30
0
10
-2.4969620087241733
20
-57.238595713086085
30
0
10
-2.4832915129141546
20
-57.374576740443459
30
0
10
-2.4473786334427485
20
-57.551451121224105
30
0
10
-2.375988743111948
20
-57.765317337628623
30
0
10
-2.2816984622566485
20
-57.971914821808497
30
0
10
-2.1678468882494344
20
-58.170791178894731
30
0
10
-2.0365907523346469
20
-58.360859069835634
30
0
10
-1.8882697343492039
20
-58.540256534464788
30
0
10
-1.7220939341351236
20
-58.706603604969828
30
0
10
-1.5367026623287039
20
-58.857232896816186
30
0
10
-1.3307662090774848
20
-58.989444259811002
30
0
10
-1.1037396312279402
20
-59.100841320752892
30
0
10
-0.85629662962918918
20
-59.189565973424322
30
0
10
-0.58966140085694052
20
-59.254130467655948
30
0
10
-0.36210361078443531
20
-59.285543565060806
30
0
10
-0.18391850800395004
20
-59.297370453761111
30
0
10
-0.061852217277411872
20
-59.299998674541712
30
0
10
0
20
-59.299998674541712
30
0
0
SPLINE
5
109
100
AcDbEntity
8
0
100
AcDbSpline
70
4
71
5
72
26
73
20
74
0
42
0.000000001
43
0.0000000001
44
0.0000000001
40
0
40
0
40
0
40
0
40
0
40
0
40
0.066666666666666666
40
0.13333333333333333
40
0.20000000000000001
40
0.26666666666666666
40
0.33333333333333331
40
0.39999999999999997
40
0.46666666666666662
40
0.53333333333333333
40
0.59999999999999998
40
0.66666666666666663
40
0.73333333333333328
40
0.79999999999999993
40
0.86666666666666659
40
0.93333333333333324
40
1
40
1
40
1
40
1
40
1
40
1
41
1
41
1
41
1
41
1
41
1
41
1
41
1
41
1
41
1
41
1
41
1
41
1
41
1
41
1
41
1
41
1
41
1
41
1
41
1
41
1
10
2.4999999441206455
20
-57.099996767938137
30
0
10
2.4999999441206455
20
-57.146445746499609
30
0
10
2.4969620087241733
20
-57.238595713086085
30
0
10
2.4832915129141546
20
-57.374576740443459
30
0
10
2.4473786334427485
20
-57.551451121224105
30
0
10
2.375988743111948
20
-57.765317337628623
30
0
10
2.2816984622566485
20
-57.971914821808497
30
0
10
2.1678468882494344
20
-58.170791178894731
30
0
10
2.0365907523346469
20
-58.360859069835634
30
0
10
1.8882697343492039
20
-58.540256534464788
30
0
10
1.7220939341351236
20
-58.706603604969828
30
0
10
1.5367026623287039
20
-58.857232896816186
30
0
10
1.3307662090774848
20
-58.989444259811002
30
0
10
1.1037396312279402
20
-59.100841320752892
30
0
10
0.85629662962918918
20
-59.189565973424322
30
0
10
0.58966140085694052
20
-59.254130467655948
30
0
10
0.36210361078443531
20
-59.285543565060806
30
0
10
0.18391850800395004
20
-59.297370453761111
30
0
10
0.061852217277411872
20
-59.299998674541712
30
0
10
0
20
-59.299998674541712
30
0
0
LINE
5
110
100
AcDbEntity
8
0
100
AcDbLine
10
2.4999999441206455
20
-54.79999877512455
30
0
11
2.4999999441206455
21
-57.099996767938137
31
0
0
SPLINE
5
111
100
AcDbEntity
8
0
100
AcDbSpline
70
0
71
3
72
14
73
10
74
0
42
0.000000001
43
0.0000000001
44
0.0000000001
40
0
40
0
40
0
40
0
40
0.27650160035279564
40
0.27650160035279564
40
0.27650160035279564
40
0.6135007572356822
40
0.6135007572356822
40
0.6135007572356822
40
1
40
1
40
1
40
1
10
1.0970104992165064
20
-57.099996767938137
30
0
10
1.0970104992165064
20
-57.167357356350273
30
0
10
1.0860443923511904
20
-57.221147578024315
30
0
10
1.0214376698197665
20
-57.343129818527238
30
0
10
0.94269522856707044
20
-57.491801334900813
30
0
10
0.81488721045105905
20
-57.643451355854928
30
0
10
0.69664263739745924
20
-57.724749996198909
30
0
10
0.56102972260880735
20
-57.817990178819414
30
0
10
0.36723147545920681
20
-57.897009229637568
30
0
10
0
20
-57.897009229637568
30
0
0
SPLINE
5
112
100
AcDbEntity
8
0
100
AcDbSpline
70
0
71
3
72
14
73
10
74
0
42
0.000000001
43
0.0000000001
44
0.0000000001
40
0
40
0
40
0
40
0
40
0.27650160035279564
40
0.27650160035279564
40
0.27650160035279564
40
0.6135007572356822
40
0.6135007572356822
40
0.6135007572356822
40
1
40
1
40
1
40
1
10
-1.0970104992165064
20
-57.099996767938137
30
0
10
-1.0970104992165064
20
-57.167357356350273
30
0
10
-1.0860443923511904
20
-57.221147578024315
30
0
10
-1.0214376698197665
20
-57.343129818527238
30
0
10
-0.94269522856707044
20
-57.491801334900813
30
0
10
-0.81488721045105905
20
-57.643451355854928
30
0
10
-0.69664263739745924
20
-57.724749996198909
30
0
10
-0.56102972260880735
20
-57.817990178819414
30
0
10
-0.36723147545920681
20
-57.897009229637568
30
0
10
0
20
-57.897009229637568
30
0
0
LINE
5
113
100
AcDbEntity
8
0
100
AcDbLine
10
-1.0970104992165064
20
-54.79999877512455
30
0
11
-1.0970104992165064
21
-57.099996767938137
31
0
0
LINE
5
114
100
AcDbEntity
8
0
100
AcDbLine
10
-1.0970104992165064
20
-54.79999877512455
30
0
11
-1.0970104992165064
21
-52.500000782310963
31
0
0
SPLINE
5
115
100
AcDbEntity
8
0
100
AcDbSpline
70
0
71
3
72
14
73
10
74
0
42
0.000000001
43
0.0000000001
44
0.0000000001
40
0
40
0
40
0
40
0
40
0.27650160034902543
40
0.27650160034902543
40
0.27650160034902543
40
0.61350075724843156
40
0.61350075724843156
40
0.61350075724843156
40
1
40
1
40
1
40
1
10
-1.0970104992165064
20
-52.500000782310963
30
0
10
-1.0970104992165064
20
-52.432640193899744
30
0
10
-1.0860443923521155
20
-52.378849972228039
30
0
10
-1.0214376698224288
20
-52.256867731726892
30
0
10
-0.94269522856691657
20
-52.108196215346155
30
0
10
-0.8148872104442173
20
-51.956546194385709
30
0
10
-0.69664263738410748
20
-51.875247554040989
30
0
10
-0.56102972259911066
20
-51.782007371427284
30
0
10
-0.36723147544709311
20
-51.702988320611531
30
0
10
0
20
-51.702988320611531
30
0
0
SPLINE
5
116
100
AcDbEntity
8
0
100
AcDbSpline
70
0
71
3
72
14
73
10
74
0
42
0.000000001
43
0.0000000001
44
0.0000000001
40
0
40
0
40
0
40
0
40
0.27650160034902543
40
0.27650160034902543
40
0.27650160034902543
40
0.61350075724843156
40
0.61350075724843156
40
0.61350075724843156
40
1
40
1
40
1
40
1
10
1.0970104992165064
20
-52.500000782310963
30
0
10
1.0970104992165064
20
-52.432640193899744
30
0
10
1.0860443923521155
20
-52.378849972228039
30
0
10
1.0214376698224288
20
-52.256867731726892
30
0
10
0.94269522856691657
20
-52.108196215346155
30
0
10
0.8148872104442173
20
-51.956546194385709
30
0
10
0.69664263738410748
20
-51.875247554040989
30
0
10
0.56102972259911066
20
-51.782007371427284
30
0
10
0.36723147544709311
20
-51.702988320611531
30
0
10
0
20
-51.702988320611531
30
0
0
LINE
5
117
100
AcDbEntity
8
0
100
AcDbLine
10
1.0970104992165064
20
-54.79999877512455
30
0
11
1.0970104992165064
21
-52.500000782310963
31
0
0
LINE
5
118
100
AcDbEntity
8
0
100
AcDbLine
10
1.0970104992165064
20
-54.79999877512455
30
0
11
1.0970104992165064
21
-57.099996767938137
31
0
0
ENDSEC
0
SECTION
2
OBJECTS
0
DICTIONARY
5
C
100
AcDbDictionary
3
ACAD_GROUP
350
D
3
ACAD_MLINESTYLE
350
17
0
DICTIONARY
5
D
100
AcDbDictionary
0
DICTIONARY
5
1A
330
C
100
AcDbDictionary
0
DICTIONARY
5
17
100
AcDbDictionary
0
ENDSEC
0
EOF
